<svg width="800" height="800" viewBox="0 0 800 800" fill="none" xmlns="http://www.w3.org/2000/svg">
<rect width="800" height="800" fill="#382BF0"/>
<path d="M361.08 285.44V431.68C361.08 458.773 353.933 479.36 339.64 493.44C325.56 507.307 305.72 514.24 280.12 514.24C252.6 514.24 230.733 506.667 214.52 491.52C198.307 476.373 190.2 454.293 190.2 425.28H260.28C260.28 434.453 261.773 440.96 264.76 444.8C267.747 448.427 271.8 450.24 276.92 450.24C281.187 450.24 284.493 448.853 286.84 446.08C289.187 443.307 290.36 438.507 290.36 431.68V285.44H361.08ZM486.15 285.44C509.83 285.44 530.523 290.24 548.23 299.84C566.15 309.44 579.91 322.773 589.51 339.84C599.11 356.907 603.91 376.32 603.91 398.08C603.91 419.627 599.11 439.04 589.51 456.32C579.91 473.6 566.15 487.253 548.23 497.28C530.523 507.093 509.83 512 486.15 512H391.75V285.44H486.15ZM479.75 448.64C495.75 448.64 508.443 444.267 517.83 435.52C527.217 426.773 531.91 414.293 531.91 398.08C531.91 381.867 527.217 369.387 517.83 360.64C508.443 351.893 495.75 347.52 479.75 347.52H462.79V448.64H479.75Z" fill="white"/>
</svg>
